<svg xmlns="http://www.w3.org/2000/svg" class="mdv-root mdv-chart" width="800" height="300" viewBox="0 0 800 300" preserveAspectRatio="xMidYMid meet" role="img" aria-labelledby="mdv-0-title mdv-0-desc" data-mdv-kind="histogram"><style>.mdv-root{--mdv-surface:#fcfcfb;--mdv-page:#f9f9f7;--mdv-text-primary:#0b0b0b;--mdv-text-secondary:#52514e;--mdv-text-muted:#898781;--mdv-grid:#e1e0d9;--mdv-axis:#c3c2b7;--mdv-border:rgba(11,11,11,0.10);--mdv-success-text:#006300;--mdv-radius:4px;--mdv-hairline:1px;--mdv-gap:2px;--mdv-ring:2px;--mdv-font:system-ui,-apple-system,"Segoe UI",sans-serif;--mdv-font-size:13px;--mdv-line-height:1.4;display:block;position:relative;font-family:var(--mdv-font);font-size:var(--mdv-font-size);line-height:var(--mdv-line-height);color:var(--mdv-text-primary)}
.mdv-root .mdv-chart,.mdv-root.mdv-chart{display:block;max-width:100%;overflow:visible;-webkit-tap-highlight-color:transparent}
.mdv-root .mdv-chart:focus{outline:none}
.mdv-root .mdv-chart:focus-visible{outline:var(--mdv-ring) solid var(--mdv-text-primary);outline-offset:var(--mdv-ring)}
.mdv-root .mdv-hit{cursor:default}
.mdv-root .mdv-crosshair{stroke:var(--mdv-axis);stroke-width:var(--mdv-hairline)}
.mdv-root .mdv-focus-ring{stroke:var(--mdv-text-primary);stroke-width:var(--mdv-ring);paint-order:stroke;rx:2}
.mdv-root .mdv-tooltip{position:absolute;z-index:2;pointer-events:none;transform:translate(-50%,calc(-100% - 10px));background:var(--mdv-surface);color:var(--mdv-text-primary);border:var(--mdv-hairline) solid var(--mdv-border);border-radius:var(--mdv-radius);padding:6px 8px;font-size:calc(var(--mdv-font-size) * 0.92);white-space:nowrap;box-shadow:0 1px 3px rgba(0,0,0,0.12)}
.mdv-root .mdv-tooltip[hidden]{display:none}
.mdv-root .mdv-readout-row{display:flex;align-items:baseline;gap:6px}
.mdv-root .mdv-readout-row-emphasis{font-weight:600}
.mdv-root .mdv-readout-swatch{flex:none;width:10px;height:2px;border-radius:1px;align-self:center}
.mdv-root .mdv-readout-value{font-variant-numeric:tabular-nums}
.mdv-root .mdv-readout-label{color:var(--mdv-text-secondary)}
.mdv-root .mdv-live{position:absolute;width:1px;height:1px;margin:-1px;padding:0;overflow:hidden;clip-path:inset(50%);white-space:nowrap;border:0}
.mdv-root .mdv-error-card{border:var(--mdv-hairline) solid var(--mdv-border);border-radius:var(--mdv-radius);padding:12px;background:var(--mdv-surface)}
@media (prefers-color-scheme:dark){.mdv-root:not([data-theme=light]){--mdv-surface:#1a1a19;--mdv-page:#0d0d0d;--mdv-text-primary:#ffffff;--mdv-text-secondary:#c3c2b7;--mdv-text-muted:#898781;--mdv-grid:#2c2c2a;--mdv-axis:#383835;--mdv-border:rgba(255,255,255,0.10);--mdv-success-text:#0ca30c}}
.mdv-root[data-theme=dark]{--mdv-surface:#1a1a19;--mdv-page:#0d0d0d;--mdv-text-primary:#ffffff;--mdv-text-secondary:#c3c2b7;--mdv-text-muted:#898781;--mdv-grid:#2c2c2a;--mdv-axis:#383835;--mdv-border:rgba(255,255,255,0.10);--mdv-success-text:#0ca30c}
@media (forced-colors:active){.mdv-root{--mdv-surface:Canvas;--mdv-page:Canvas;--mdv-text-primary:CanvasText;--mdv-text-secondary:CanvasText;--mdv-text-muted:GrayText;--mdv-grid:GrayText;--mdv-axis:CanvasText;--mdv-border:CanvasText;--mdv-success-text:CanvasText;forced-color-adjust:none;color:CanvasText}
.mdv-root .mdv-tooltip{background:Canvas;border-color:CanvasText;color:CanvasText}
.mdv-root .mdv-focus-ring{stroke:Highlight}}
@media (prefers-reduced-motion:reduce){.mdv-root *,.mdv-root *::before,.mdv-root *::after{animation-duration:0.01ms !important;animation-iteration-count:1 !important;transition-duration:0.01ms !important;scroll-behavior:auto !important}}</style><title id="mdv-0-title">Request latency</title><desc id="mdv-0-desc">Histogram. Ms, 12 bins. Bin counts range from 0 in 266.5–316 to 9 in 167.5–217. Most common: 167.5–217.</desc><defs><clipPath id="mdv-0-mdv-0-clip-19"><path d="M28.487 20.699L804 20.699L804 265.314L28.487 265.314Z"/></clipPath></defs><rect class="mdv-surface" x="0" y="0" width="800" height="300" fill="#f9f9f7" aria-hidden="true"/><g id="mdv-0-mdv-0-root-23" class="mdv-chart" role="img" aria-label="Request latency"><rect class="mdv-surface" x="0" y="0" width="800" height="300" fill="#fcfcfb"/><g id="mdv-0-mdv-0-grid-20" class="mdv-grid"><line class="mdv-grid-line" x1="40.487" y1="57.212" x2="792" y2="57.212" stroke="#e1e0d9" stroke-width="1"/><line class="mdv-grid-line" x1="40.487" y1="106.238" x2="792" y2="106.238" stroke="#e1e0d9" stroke-width="1"/><line class="mdv-grid-line" x1="40.487" y1="155.263" x2="792" y2="155.263" stroke="#e1e0d9" stroke-width="1"/><line class="mdv-grid-line" x1="40.487" y1="204.289" x2="792" y2="204.289" stroke="#e1e0d9" stroke-width="1"/><line class="mdv-grid-line" x1="40.487" y1="253.314" x2="792" y2="253.314" stroke="#e1e0d9" stroke-width="1"/></g><g id="mdv-0-mdv-0-marks-21" class="mdv-marks" clip-path="url(#mdv-0-mdv-0-clip-19)" role="graphics-object"><path id="mdv-0-mdv-0-bar-1" class="mdv-mark mdv-mark-bar" d="M44.487 81.725L98.113 81.725A4 4 0 0 1 102.113 85.725L102.113 253.315L40.487 253.315L40.487 85.725A4 4 0 0 1 44.487 81.725Z" fill="#898781"/><path id="mdv-0-mdv-0-bar-2" class="mdv-mark mdv-mark-bar" d="M108.113 32.699L160.739 32.699A4 4 0 0 1 164.739 36.699L164.739 253.314L104.113 253.314L104.113 36.699A4 4 0 0 1 108.113 32.699Z" fill="#898781"/><path id="mdv-0-mdv-0-bar-3" class="mdv-mark mdv-mark-bar" d="M170.739 204.289L223.365 204.289A4 4 0 0 1 227.365 208.289L227.365 253.315L166.739 253.315L166.739 208.289A4 4 0 0 1 170.739 204.289Z" fill="#898781"/><path id="mdv-0-mdv-0-bar-4" class="mdv-mark mdv-mark-bar" d="M358.617 228.802L411.243 228.802A4 4 0 0 1 415.243 232.802L415.243 253.315L354.617 253.315L354.617 232.802A4 4 0 0 1 358.617 228.802Z" fill="#898781"/><path id="mdv-0-mdv-0-bar-5" class="mdv-mark mdv-mark-bar" d="M421.243 155.263L473.869 155.263A4 4 0 0 1 477.869 159.263L477.869 253.314L417.243 253.314L417.243 159.263A4 4 0 0 1 421.243 155.263Z" fill="#898781"/><path id="mdv-0-mdv-0-bar-6" class="mdv-mark mdv-mark-bar" d="M483.869 155.263L536.495 155.263A4 4 0 0 1 540.495 159.263L540.495 253.314L479.869 253.314L479.869 159.263A4 4 0 0 1 483.869 155.263Z" fill="#898781"/><path id="mdv-0-mdv-0-bar-7" class="mdv-mark mdv-mark-bar" d="M546.496 228.802L599.122 228.802A4 4 0 0 1 603.122 232.802L603.122 253.315L542.496 253.315L542.496 232.802A4 4 0 0 1 546.496 228.802Z" fill="#898781"/><path id="mdv-0-mdv-0-bar-8" class="mdv-mark mdv-mark-bar" d="M671.748 228.802L724.374 228.802A4 4 0 0 1 728.374 232.802L728.374 253.315L667.748 253.315L667.748 232.802A4 4 0 0 1 671.748 228.802Z" fill="#898781"/><path id="mdv-0-mdv-0-bar-9" class="mdv-mark mdv-mark-bar" d="M734.374 228.802L788 228.802A4 4 0 0 1 792 232.802L792 253.315L730.374 253.315L730.374 232.802A4 4 0 0 1 734.374 228.802Z" fill="#898781"/></g><g id="mdv-0-mdv-0-axis-22" class="mdv-axis"><line class="mdv-axis-line" x1="40.487" y1="253.314" x2="792" y2="253.314" stroke="#c3c2b7" stroke-width="1"/><line class="mdv-axis-tick" x1="144.231" y1="253.314" x2="144.231" y2="257.314" stroke="#c3c2b7" stroke-width="1"/><line class="mdv-axis-tick" x1="270.748" y1="253.314" x2="270.748" y2="257.314" stroke="#c3c2b7" stroke-width="1"/><line class="mdv-axis-tick" x1="397.266" y1="253.314" x2="397.266" y2="257.314" stroke="#c3c2b7" stroke-width="1"/><line class="mdv-axis-tick" x1="523.783" y1="253.314" x2="523.783" y2="257.314" stroke="#c3c2b7" stroke-width="1"/><line class="mdv-axis-tick" x1="650.301" y1="253.314" x2="650.301" y2="257.314" stroke="#c3c2b7" stroke-width="1"/><line class="mdv-axis-tick" x1="776.818" y1="253.314" x2="776.818" y2="257.314" stroke="#c3c2b7" stroke-width="1"/><text class="mdv-axis-label" x="144.231" y="261.314" text-anchor="middle" dominant-baseline="hanging" font-family="system-ui, -apple-system, &quot;Segoe UI&quot;, sans-serif" font-size="11.05" font-weight="400" fill="#898781">200</text><text class="mdv-axis-label" x="270.748" y="261.314" text-anchor="middle" dominant-baseline="hanging" font-family="system-ui, -apple-system, &quot;Segoe UI&quot;, sans-serif" font-size="11.05" font-weight="400" fill="#898781">300</text><text class="mdv-axis-label" x="397.266" y="261.314" text-anchor="middle" dominant-baseline="hanging" font-family="system-ui, -apple-system, &quot;Segoe UI&quot;, sans-serif" font-size="11.05" font-weight="400" fill="#898781">400</text><text class="mdv-axis-label" x="523.783" y="261.314" text-anchor="middle" dominant-baseline="hanging" font-family="system-ui, -apple-system, &quot;Segoe UI&quot;, sans-serif" font-size="11.05" font-weight="400" fill="#898781">500</text><text class="mdv-axis-label" x="650.301" y="261.314" text-anchor="middle" dominant-baseline="hanging" font-family="system-ui, -apple-system, &quot;Segoe UI&quot;, sans-serif" font-size="11.05" font-weight="400" fill="#898781">600</text><text class="mdv-axis-label" x="776.818" y="261.314" text-anchor="middle" dominant-baseline="hanging" font-family="system-ui, -apple-system, &quot;Segoe UI&quot;, sans-serif" font-size="11.05" font-weight="400" fill="#898781">700</text><text class="mdv-axis-title" x="416.243" y="279.657" text-anchor="middle" dominant-baseline="hanging" font-family="system-ui, -apple-system, &quot;Segoe UI&quot;, sans-serif" font-size="11.05" font-weight="400" fill="#52514e">ms</text><line class="mdv-axis-tick" x1="40.487" y1="57.212" x2="36.487" y2="57.212" stroke="#c3c2b7" stroke-width="1"/><line class="mdv-axis-tick" x1="40.487" y1="106.238" x2="36.487" y2="106.238" stroke="#c3c2b7" stroke-width="1"/><line class="mdv-axis-tick" x1="40.487" y1="155.263" x2="36.487" y2="155.263" stroke="#c3c2b7" stroke-width="1"/><line class="mdv-axis-tick" x1="40.487" y1="204.289" x2="36.487" y2="204.289" stroke="#c3c2b7" stroke-width="1"/><line class="mdv-axis-tick" x1="40.487" y1="253.314" x2="36.487" y2="253.314" stroke="#c3c2b7" stroke-width="1"/><text class="mdv-axis-label" x="32.487" y="57.212" text-anchor="end" dominant-baseline="central" font-family="system-ui, -apple-system, &quot;Segoe UI&quot;, sans-serif" font-size="11.05" font-weight="400" font-variant-numeric="tabular-nums" fill="#898781">8</text><text class="mdv-axis-label" x="32.487" y="106.238" text-anchor="end" dominant-baseline="central" font-family="system-ui, -apple-system, &quot;Segoe UI&quot;, sans-serif" font-size="11.05" font-weight="400" font-variant-numeric="tabular-nums" fill="#898781">6</text><text class="mdv-axis-label" x="32.487" y="155.263" text-anchor="end" dominant-baseline="central" font-family="system-ui, -apple-system, &quot;Segoe UI&quot;, sans-serif" font-size="11.05" font-weight="400" font-variant-numeric="tabular-nums" fill="#898781">4</text><text class="mdv-axis-label" x="32.487" y="204.289" text-anchor="end" dominant-baseline="central" font-family="system-ui, -apple-system, &quot;Segoe UI&quot;, sans-serif" font-size="11.05" font-weight="400" font-variant-numeric="tabular-nums" fill="#898781">2</text><text class="mdv-axis-label" x="32.487" y="253.314" text-anchor="end" dominant-baseline="central" font-family="system-ui, -apple-system, &quot;Segoe UI&quot;, sans-serif" font-size="11.05" font-weight="400" font-variant-numeric="tabular-nums" fill="#898781">0</text><text class="mdv-axis-title" x="20.343" y="143.007" transform="rotate(-90 20.343 143.007)" text-anchor="middle" dominant-baseline="hanging" font-family="system-ui, -apple-system, &quot;Segoe UI&quot;, sans-serif" font-size="11.05" font-weight="400" fill="#52514e">Count</text></g><text id="mdv-0-mdv-0-title-0" class="mdv-title" x="8" y="8" dominant-baseline="hanging" font-family="system-ui, -apple-system, &quot;Segoe UI&quot;, sans-serif" font-size="14.95" font-weight="600" fill="#0b0b0b">Request latency</text></g></svg>
